REM DIRINDEX 1\2\5,1\2\6,1\2\7,1\2\8,1\3\9,1\3\10,1\3\11,1\4\12,1\4\13,1\4\14,1\4\15,1\4\16
REM DIRNAME cjc034,folder01,folder02,folder03,folder04,folder05,folder06,folder07,folder08,folder09,folder10,folder11,folder12,folder13,folder14,folder15
TITLE ""
FILE "1200_sec03_0969_0976.mp3" MP3
  TRACK 01 AUDIO
    TITLE "0:"
    INDEX 01 00:00:00
  TRACK 02 AUDIO
    TITLE "12:cjc034_07555"
    INDEX 01 00:00:19
  TRACK 03 AUDIO
    TITLE "0:"
    INDEX 01 00:01:50
  TRACK 04 AUDIO
    TITLE "13:cjc034_07556"
    INDEX 01 00:02:08
  TRACK 05 AUDIO
    TITLE "0:"
    INDEX 01 00:03:35
  TRACK 06 AUDIO
    TITLE "14:cjc034_07557"
    INDEX 01 00:03:72
  TRACK 07 AUDIO
    TITLE "0:"
    INDEX 01 00:05:26
  TRACK 08 AUDIO
    TITLE "15:cjc034_07558"
    INDEX 01 00:05:59
  TRACK 09 AUDIO
    TITLE "0:"
    INDEX 01 00:09:22
  TRACK 10 AUDIO
    TITLE "12:cjc034_07559"
    INDEX 01 00:10:53
  TRACK 11 AUDIO
    TITLE "0:"
    INDEX 01 00:11:64
  TRACK 12 AUDIO
    TITLE "13:cjc034_07560"
    INDEX 01 00:12:20
  TRACK 13 AUDIO
    TITLE "0:"
    INDEX 01 00:13:39
  TRACK 14 AUDIO
    TITLE "14:cjc034_07561"
    INDEX 01 00:13:71
  TRACK 15 AUDIO
    TITLE "0:"
    INDEX 01 00:15:05
  TRACK 16 AUDIO
    TITLE "15:cjc034_07562"
    INDEX 01 00:15:38
  TRACK 17 AUDIO
    TITLE "0:"
    INDEX 01 00:20:08
  TRACK 18 AUDIO
    TITLE "12:cjc034_07563"
    INDEX 01 00:21:41
  TRACK 19 AUDIO
    TITLE "0:"
    INDEX 01 00:22:70
  TRACK 20 AUDIO
    TITLE "13:cjc034_07564"
    INDEX 01 00:23:26
  TRACK 21 AUDIO
    TITLE "0:"
    INDEX 01 00:24:67
  TRACK 22 AUDIO
    TITLE "14:cjc034_07565"
    INDEX 01 00:25:27
  TRACK 23 AUDIO
    TITLE "0:"
    INDEX 01 00:26:56
  TRACK 24 AUDIO
    TITLE "15:cjc034_07566"
    INDEX 01 00:27:16
  TRACK 25 AUDIO
    TITLE "0:"
    INDEX 01 00:32:45
  TRACK 26 AUDIO
    TITLE "12:cjc034_07567"
    INDEX 01 00:34:06
  TRACK 27 AUDIO
    TITLE "0:"
    INDEX 01 00:35:27
  TRACK 28 AUDIO
    TITLE "13:cjc034_07568"
    INDEX 01 00:35:59
  TRACK 29 AUDIO
    TITLE "0:"
    INDEX 01 00:37:12
  TRACK 30 AUDIO
    TITLE "14:cjc034_07569"
    INDEX 01 00:37:48
  TRACK 31 AUDIO
    TITLE "0:"
    INDEX 01 00:38:69
  TRACK 32 AUDIO
    TITLE "15:cjc034_07570"
    INDEX 01 00:39:25
  TRACK 33 AUDIO
    TITLE "0:"
    INDEX 01 00:42:61
  TRACK 34 AUDIO
    TITLE "16:cjc034_07571"
    INDEX 01 00:44:28
  TRACK 35 AUDIO
    TITLE "0:"
    INDEX 01 00:49:49
  TRACK 36 AUDIO
    TITLE "12:cjc034_07572"
    INDEX 01 00:50:52
  TRACK 37 AUDIO
    TITLE "0:"
    INDEX 01 00:52:00
  TRACK 38 AUDIO
    TITLE "13:cjc034_07573"
    INDEX 01 00:52:34
  TRACK 39 AUDIO
    TITLE "0:"
    INDEX 01 00:57:29
  TRACK 40 AUDIO
    TITLE "14:cjc034_07574"
    INDEX 01 00:57:60
  TRACK 41 AUDIO
    TITLE "0:"
    INDEX 01 00:59:10
  TRACK 42 AUDIO
    TITLE "15:cjc034_07575"
    INDEX 01 00:59:43
  TRACK 43 AUDIO
    TITLE "0:"
    INDEX 01 01:03:18
  TRACK 44 AUDIO
    TITLE "12:cjc034_07576"
    INDEX 01 01:04:54
  TRACK 45 AUDIO
    TITLE "0:"
    INDEX 01 01:05:68
  TRACK 46 AUDIO
    TITLE "13:cjc034_07577"
    INDEX 01 01:06:26
  TRACK 47 AUDIO
    TITLE "0:"
    INDEX 01 01:07:37
  TRACK 48 AUDIO
    TITLE "14:cjc034_07578"
    INDEX 01 01:07:72
  TRACK 49 AUDIO
    TITLE "0:"
    INDEX 01 01:09:10
  TRACK 50 AUDIO
    TITLE "15:cjc034_07579"
    INDEX 01 01:09:48
  TRACK 51 AUDIO
    TITLE "0:"
    INDEX 01 01:12:46
  TRACK 52 AUDIO
    TITLE "12:cjc034_07580"
    INDEX 01 01:14:06
  TRACK 53 AUDIO
    TITLE "0:"
    INDEX 01 01:15:23
  TRACK 54 AUDIO
    TITLE "13:cjc034_07581"
    INDEX 01 01:15:54
  TRACK 55 AUDIO
    TITLE "0:"
    INDEX 01 01:16:67
  TRACK 56 AUDIO
    TITLE "14:cjc034_07582"
    INDEX 01 01:17:28
  TRACK 57 AUDIO
    TITLE "0:"
    INDEX 01 01:18:45
  TRACK 58 AUDIO
    TITLE "15:cjc034_07583"
    INDEX 01 01:19:05
  TRACK 59 AUDIO
    TITLE "0:"
    INDEX 01 01:23:22
  TRACK 60 AUDIO
    TITLE "12:cjc034_07584"
    INDEX 01 01:24:55
  TRACK 61 AUDIO
    TITLE "0:"
    INDEX 01 01:25:66
  TRACK 62 AUDIO
    TITLE "13:cjc034_07585"
    INDEX 01 01:26:27
  TRACK 63 AUDIO
    TITLE "0:"
    INDEX 01 01:27:67
  TRACK 64 AUDIO
    TITLE "14:cjc034_07586"
    INDEX 01 01:28:25
  TRACK 65 AUDIO
    TITLE "0:"
    INDEX 01 01:29:37
  TRACK 66 AUDIO
    TITLE "15:cjc034_07587"
    INDEX 01 01:29:72
  TRACK 67 AUDIO
    TITLE "0:"
    INDEX 01 01:33:23
